<svg width="98" height="19" viewBox="0 0 98 19" fill="none" xmlns="http://www.w3.org/2000/svg">
<path d="M9.38086 0.5L12.4967 5.2114L17.9404 6.71885L14.4224 11.1381L14.6709 16.7812L9.38086 14.801L4.09079 16.7812L4.33931 11.1381L0.821351 6.71885L6.26501 5.2114L9.38086 0.5Z" fill="#E60000"/>
<path d="M29.3809 0.5L32.4967 5.2114L37.9404 6.71885L34.4224 11.1381L34.6709 16.7812L29.3809 14.801L24.0908 16.7812L24.3393 11.1381L20.8214 6.71885L26.265 5.2114L29.3809 0.5Z" fill="#E60000"/>
<path d="M49.3809 0.5L52.4967 5.2114L57.9404 6.71885L54.4224 11.1381L54.6709 16.7812L49.3809 14.801L44.0908 16.7812L44.3393 11.1381L40.8214 6.71885L46.265 5.2114L49.3809 0.5Z" fill="#E60000"/>
<path d="M69.3809 0.5L72.4967 5.2114L77.9404 6.71885L74.4224 11.1381L74.6709 16.7812L69.3809 14.801L64.0908 16.7812L64.3393 11.1381L60.8214 6.71885L66.265 5.2114L69.3809 0.5Z" fill="#E60000"/>
<path d="M83.6503 16.7812L88.9404 14.801V0.5L85.8245 5.2114L80.3809 6.71885L83.8988 11.1381L83.6503 16.7812Z" fill="#E60000"/>
<path d="M92.0553 5.2114L88.9395 0.5V14.801L94.2295 16.7812L93.981 11.1381L97.499 6.71885L92.0553 5.2114Z" fill="#999999"/>
</svg>
